<mxfile host="65bd71144e">
    <diagram id="mUyLTHo87LMUWV6whuMU" name="Page-1">
        <mxGraphModel dx="946" dy="781" grid="0" gridSize="10" guides="1" tooltips="1" connect="1" arrows="1" fold="1" page="0" pageScale="1" pageWidth="850" pageHeight="1100" background="#ffffff" math="0" shadow="0">
            <root>
                <mxCell id="0"/>
                <mxCell id="1" parent="0"/>
                <mxCell id="2" value="Checksum&lt;font style=&quot;font-size: 12px&quot; color=&quot;#65899e&quot;&gt; &lt;br&gt;2 bytes&lt;/font&gt;" style="rounded=0;whiteSpace=wrap;html=1;fillColor=none;strokeColor=#999999;strokeWidth=5;fontColor=#000000;fontSize=18;fontStyle=1" vertex="1" parent="1">
                    <mxGeometry x="40" y="80" width="160" height="80" as="geometry"/>
                </mxCell>
                <mxCell id="3" value="Packet Length&lt;br style=&quot;color: rgb(101 , 137 , 158) ; font-size: 12px&quot;&gt;&lt;span style=&quot;color: rgb(101 , 137 , 158) ; font-size: 12px&quot;&gt;2 bytes&lt;/span&gt;" style="rounded=0;whiteSpace=wrap;html=1;fillColor=none;strokeColor=#999999;strokeWidth=5;fontColor=#000000;fontSize=18;fontStyle=1" vertex="1" parent="1">
                    <mxGeometry x="200" y="80" width="160" height="80" as="geometry"/>
                </mxCell>
                <mxCell id="4" value="Transport Control&lt;br style=&quot;color: rgb(101 , 137 , 158) ; font-size: 12px&quot;&gt;&lt;span style=&quot;color: rgb(101 , 137 , 158) ; font-size: 12px&quot;&gt;1 byte&lt;/span&gt;" style="rounded=0;whiteSpace=wrap;html=1;fillColor=none;strokeColor=#999999;strokeWidth=5;fontColor=#000000;fontSize=14;fontStyle=1" vertex="1" parent="1">
                    <mxGeometry x="360" y="80" width="80" height="80" as="geometry"/>
                </mxCell>
                <mxCell id="5" value="Packet Type&lt;br style=&quot;color: rgb(101 , 137 , 158) ; font-size: 12px&quot;&gt;&lt;span style=&quot;color: rgb(101 , 137 , 158) ; font-size: 12px&quot;&gt;1 byte&lt;/span&gt;" style="rounded=0;whiteSpace=wrap;html=1;fillColor=none;strokeColor=#999999;strokeWidth=5;fontColor=#000000;fontSize=14;fontStyle=1" vertex="1" parent="1">
                    <mxGeometry x="40" y="160" width="80" height="80" as="geometry"/>
                </mxCell>
                <mxCell id="7" value="Destination Network&lt;br style=&quot;color: rgb(101 , 137 , 158) ; font-size: 12px&quot;&gt;&lt;span style=&quot;color: rgb(101 , 137 , 158) ; font-size: 12px&quot;&gt;4 bytes&lt;/span&gt;" style="rounded=0;whiteSpace=wrap;html=1;fillColor=none;strokeColor=#999999;strokeWidth=5;fontColor=#000000;fontSize=18;fontStyle=1" vertex="1" parent="1">
                    <mxGeometry x="120" y="160" width="320" height="80" as="geometry"/>
                </mxCell>
                <mxCell id="8" value="Destination Node&lt;br style=&quot;color: rgb(101 , 137 , 158) ; font-size: 12px&quot;&gt;&lt;span style=&quot;color: rgb(101 , 137 , 158) ; font-size: 12px&quot;&gt;6&amp;nbsp;bytes&lt;/span&gt;" style="rounded=0;whiteSpace=wrap;html=1;fillColor=none;strokeColor=#999999;strokeWidth=5;fontColor=#000000;fontSize=18;fontStyle=1" vertex="1" parent="1">
                    <mxGeometry x="40" y="240" width="480" height="80" as="geometry"/>
                </mxCell>
                <mxCell id="9" value="Destination Socket&lt;br style=&quot;color: rgb(101 , 137 , 158) ; font-size: 12px&quot;&gt;&lt;span style=&quot;color: rgb(101 , 137 , 158) ; font-size: 12px&quot;&gt;2 bytes&lt;/span&gt;" style="rounded=0;whiteSpace=wrap;html=1;fillColor=none;strokeColor=#999999;strokeWidth=5;fontColor=#000000;fontSize=18;fontStyle=1" vertex="1" parent="1">
                    <mxGeometry x="40" y="320" width="160" height="80" as="geometry"/>
                </mxCell>
                <mxCell id="10" value="Source Network&lt;br style=&quot;color: rgb(101 , 137 , 158) ; font-size: 12px&quot;&gt;&lt;span style=&quot;color: rgb(101 , 137 , 158) ; font-size: 12px&quot;&gt;4 bytes&lt;/span&gt;" style="rounded=0;whiteSpace=wrap;html=1;fillColor=none;strokeColor=#999999;strokeWidth=5;fontColor=#000000;fontSize=18;fontStyle=1" vertex="1" parent="1">
                    <mxGeometry x="200" y="320" width="320" height="80" as="geometry"/>
                </mxCell>
                <mxCell id="11" value="Source Node&lt;br style=&quot;color: rgb(101 , 137 , 158) ; font-size: 12px&quot;&gt;&lt;span style=&quot;color: rgb(101 , 137 , 158) ; font-size: 12px&quot;&gt;6 bytes&lt;/span&gt;" style="rounded=0;whiteSpace=wrap;html=1;fillColor=none;strokeColor=#999999;strokeWidth=5;fontColor=#000000;fontSize=18;fontStyle=1" vertex="1" parent="1">
                    <mxGeometry x="40" y="400" width="480" height="80" as="geometry"/>
                </mxCell>
                <mxCell id="12" value="Source Socket&lt;br style=&quot;color: rgb(101 , 137 , 158) ; font-size: 12px&quot;&gt;&lt;span style=&quot;color: rgb(101 , 137 , 158) ; font-size: 12px&quot;&gt;2 bytes&lt;/span&gt;" style="rounded=0;whiteSpace=wrap;html=1;fillColor=none;strokeColor=#999999;strokeWidth=5;fontColor=#000000;fontSize=18;fontStyle=1" vertex="1" parent="1">
                    <mxGeometry x="40" y="480" width="160" height="80" as="geometry"/>
                </mxCell>
                <mxCell id="13" value="Datagram" style="rounded=0;whiteSpace=wrap;html=1;fillColor=none;strokeColor=#999999;strokeWidth=5;fontColor=#000000;fontSize=18;fontStyle=1" vertex="1" parent="1">
                    <mxGeometry x="40" y="560" width="480" height="160" as="geometry"/>
                </mxCell>
                <mxCell id="15" value="Higher-Level Protocol Headers&lt;font color=&quot;#65899e&quot; style=&quot;font-size: 12px&quot;&gt; &lt;br&gt;variable&lt;/font&gt;" style="rounded=0;whiteSpace=wrap;html=1;fillColor=none;strokeColor=#999999;strokeWidth=5;fontColor=#000000;fontSize=18;fontStyle=1" vertex="1" parent="1">
                    <mxGeometry x="200" y="480" width="320" height="80" as="geometry"/>
                </mxCell>
            </root>
        </mxGraphModel>
    </diagram>
</mxfile>